ply
format ascii 1.0
comment VCGLIB generated
element vertex 26
property float x
property float y
property float z
property float nx
property float ny
property float nz
property float texture_u
property float texture_v
element face 12
property list uchar int vertex_indices
end_header
10000 -1 -10000 0 0 -1 1.000000 -1.000000
-10000 1 -10000 0 0 -1 -1.000000 1.000000
10000 1 -10000 0 0 -1 1.000000 1.000000
-10000 1 10000 0 0 1 -1.000000 1.000000
9999.99 -1.000001 10000 0 0 1 0.999999 -1.000001
10000 0.999999 10000 0 0 1 1.000000 0.999999
10000 0.999999 10000 1 0 0 1.000000 0.999999
10000 -1 -10000 1 0 0 1.000000 -1.000000
10000 1 -10000 1 0 0 1.000000 1.000000
9999.99 -1.000001 10000 -0.002384174 -0.9999943 -0.002384173 0.999999 -1.000001
-10000 -1 -10000 -0.002384173 -0.9999943 -0.002384174 -1.000000 -1.000000
10000 -1 -10000 0 -0.9999887 -0.004768318 1.000000 -1.000000
-10000 -1 -10000 -1 0 0 -1.000000 -1.000000
-10000 1 10000 -1 0 0 -1.000000 1.000000
-10000 1 -10000 -1 0 0 -1.000000 1.000000
10000 1 -10000 0.002533181 0.9999936 0.002533181 1.000000 1.000000
-10000 1 10000 0.002533181 0.9999936 0.002533181 -1.000000 1.000000
10000 0.999999 10000 0.005066265 0.9999743 0.005066265 1.000000 0.999999
-10000 -1 -10000 0 0 -1 -1.000000 -1.000000
-10000 -1 10000 0 0 1 -1.000000 -1.000000
10000 0.999999 10000 1 -5.066393e-11 5.066393e-07 1.000000 0.999999
9999.99 -1.000001 10000 1 -5.066393e-11 5.066393e-07 0.999999 -1.000001
10000 -1 -10000 1 -5.066393e-11 5.066393e-07 1.000000 -1.000000
-10000 -1 10000 -0.00476832 -0.9999887 0 -1.000000 -1.000000
-10000 -1 10000 -1 0 0 -1.000000 -1.000000
-10000 1 -10000 0 1 0 -1.000000 1.000000
3 0 1 2 
3 3 4 5 
3 6 7 8 
3 9 10 11 
3 12 13 14 
3 15 16 17 
3 0 18 1 
3 3 19 4 
3 20 21 22 
3 9 23 10 
3 12 24 13 
3 15 25 16 
